<svg width="135" height="46" viewBox="0 0 135 46" fill="none" xmlns="http://www.w3.org/2000/svg">
<path d="M21.3945 27.4513H18.592V17.9907L14.5022 21.5425H12.6664L8.57331 17.9907V27.4513H5.77246V14.9174L8.09048 13.8545L13.5824 18.6253L19.076 13.8545L21.3945 14.9174V27.4513Z" fill="#FFFFFF"/>
<path d="M38.9257 27.4513H26.1062L24.7041 26.0484V14.9175L26.1062 13.5117H38.9257L40.3278 14.9175V26.0489L38.9257 27.4513ZM27.505 24.6432H37.5269V16.3199H27.505V24.6432Z" fill="#FFFFFF"/>
<path d="M30.5312 20.8665V20.0993C30.5312 19.2133 31.2495 18.4932 32.1349 18.4932H32.8973C33.7833 18.4932 34.5015 19.2133 34.5015 20.0993V20.8665C34.5015 21.7531 33.7833 22.4733 32.8973 22.4733H32.1349C31.2495 22.4733 30.5312 21.7531 30.5312 20.8665Z" fill="#FFFFFF"/>
<path d="M81.0981 27.4509H70.0804L68.6816 26.0485V13.5107H71.4825V24.6428H81.0981V27.4509Z" fill="#FFFFFF"/>
<path d="M57.8571 19.0772H56.0535V14.9175L54.6531 13.5117H43.6387V16.3199H53.251V19.0777H43.6387V26.0489L45.0375 27.4519H57.8571L59.2591 26.0489V20.4829L57.8571 19.0772ZM56.4583 24.6432H46.4395V21.8892H56.4583V24.6432Z" fill="#FFFFFF"/>
<path d="M112.441 27.4509H92.8076V24.6428H111.039V21.8888H99.6186L98.2198 20.4825V14.917L99.6186 13.5107H110.636V16.3195H101.021V19.0767H112.441L113.843 20.4825V26.0485L112.441 27.4509Z" fill="#FFFFFF"/>
<path d="M65.3712 13.5107H62.5703V27.4509H65.3712V13.5107Z" fill="#FFFFFF"/>
<path d="M130.891 13.5107H115.27V16.3195H121.678V27.4509H124.482V16.3195H130.891V13.5107Z" fill="#FFFFFF"/>
<path d="M110.64 4.92969C108.543 4.92969 106.836 6.63771 106.836 8.74002C106.836 9.31393 106.961 9.86592 107.205 10.3785C107.208 10.3922 107.216 10.4009 107.219 10.4108L110.095 15.9905C110.196 16.1942 110.41 16.3229 110.64 16.3229C110.87 16.3229 111.08 16.1942 111.185 15.9905L114.058 10.4141C114.061 10.4037 114.068 10.3938 114.071 10.3834C114.318 9.86921 114.441 9.31557 114.441 8.74002C114.44 6.63826 112.733 4.92969 110.64 4.92969ZM110.64 10.7366C109.542 10.7366 108.648 9.84183 108.648 8.74002C108.648 7.63985 109.542 6.74669 110.64 6.74669C111.737 6.74669 112.628 7.63985 112.628 8.74002C112.628 9.84183 111.737 10.7366 110.64 10.7366Z" fill="#FFFFFF"/>
<path d="M90.8595 13.4551L87.0995 18.221L83.3335 13.4551H79.7637L85.698 20.9717V27.4511H88.4988V20.9717L94.4326 13.4551H90.8595Z" fill="#FFFFFF"/>
</svg>
