<?xml version="1.0" encoding="utf-8"?>
<svg viewBox="0 0 512 512" style="enable-background:new 0 0 512 512;" xmlns="http://www.w3.org/2000/svg">
  <g>
    <g>
      <circle xmlns="http://www.w3.org/2000/svg" style="fill:#B9E8EA;" cx="236.827" cy="236.827" r="236.827"/>
      <path d="M 383.261 177.52 L 343.255 83.876 C 339.83 75.792 331.884 70.586 323.115 70.586 L 152.404 70.586 C 143.635 70.586 135.757 75.792 132.264 83.876 L 92.257 177.52 C 74.652 185.604 62.39 203.415 62.39 224.034 L 62.39 282.468 C 62.39 294.525 72.254 304.389 84.311 304.389 L 91.641 304.389 L 91.641 340.902 C 91.641 352.958 101.505 362.823 113.562 362.823 L 142.813 362.823 C 154.87 362.823 164.734 352.958 164.734 340.902 L 164.734 304.389 L 310.853 304.389 L 310.853 340.902 C 310.853 352.958 320.717 362.823 332.774 362.823 L 362.025 362.823 C 374.082 362.823 383.946 352.958 383.946 340.902 L 383.946 304.389 L 391.208 304.389 C 403.264 304.389 413.129 294.525 413.129 282.468 L 413.129 224.034 C 413.129 203.415 400.867 185.604 383.261 177.52 Z M 145.69 89.63 C 146.855 86.958 149.458 85.177 152.404 85.177 L 323.115 85.177 C 326.061 85.177 328.664 86.89 329.828 89.562 L 365.45 172.931 C 364.286 172.862 363.121 172.794 362.025 172.794 L 113.562 172.794 C 112.398 172.794 111.233 172.862 110.137 172.931 L 145.69 89.63 Z M 150.075 340.902 C 150.075 344.943 146.786 348.232 142.745 348.232 L 113.562 348.232 C 109.52 348.232 106.232 344.943 106.232 340.902 L 106.232 304.389 L 150.075 304.389 L 150.075 340.902 Z M 361.957 348.232 L 332.706 348.232 C 328.664 348.232 325.376 344.943 325.376 340.902 L 325.376 304.389 L 369.218 304.389 L 369.218 340.902 L 369.287 340.902 C 369.287 344.943 365.998 348.232 361.957 348.232 Z M 391.208 289.798 L 376.616 289.798 L 318.183 289.798 L 157.405 289.798 L 98.902 289.798 L 84.311 289.798 C 80.269 289.798 76.981 286.51 76.981 282.468 L 76.981 224.034 C 76.981 203.894 93.354 187.522 113.494 187.522 L 361.957 187.522 C 382.097 187.522 398.469 203.894 398.469 224.034 L 398.469 282.468 L 398.538 282.468 C 398.538 286.51 395.249 289.798 391.208 289.798 Z" style=""/>
    </g>
  </g>
  <g style="" transform="matrix(0.655162, 0, 0, 0.655162, 69.230324, 53.046719)">
    <g>
      <path d="M96,234.7c-29.4,0-53.3,23.9-53.3,53.3c0,29.4,23.9,53.3,53.3,53.3s53.3-23.9,53.3-53.3C149.3,258.6,125.4,234.7,96,234.7 z M96,320c-17.6,0-32-14.4-32-32c0-17.6,14.4-32,32-32s32,14.4,32,32C128,305.6,113.6,320,96,320z"/>
    </g>
  </g>
  <g transform="matrix(0.667053, 0, 0, 0.667053, 77.662231, 46.45322)" style="">
    <g>
      <path d="M416,234.7c-29.4,0-53.3,23.9-53.3,53.3c0,29.4,23.9,53.3,53.3,53.3c29.4,0,53.3-23.9,53.3-53.3 C469.3,258.6,445.4,234.7,416,234.7z M416,320c-17.6,0-32-14.4-32-32c0-17.6,14.4-32,32-32c17.6,0,32,14.4,32,32 C448,305.6,433.6,320,416,320z"/>
    </g>
  </g>
  <g transform="matrix(1, 0, 0, 1, 31.154243, 135.630615)">
    <g>
      <path d="M 266.148 117.437 L 152.146 117.437 C 147.644 117.437 143.981 121.1 143.981 125.602 C 143.981 130.104 147.644 133.767 152.146 133.767 L 266.072 133.767 C 270.574 133.767 274.237 130.104 274.237 125.602 C 274.237 121.1 270.651 117.437 266.148 117.437 Z" style=""/>
    </g>
  </g>
  <g transform="matrix(0.76307, 0, 0, 0.76307, 47.490528, 20.091591)" style="">
    <g>
      <path d="M330.7,256H181.3c-5.9,0-10.7,4.8-10.7,10.7s4.8,10.7,10.7,10.7h149.3c5.9,0,10.7-4.8,10.7-10.7S336.6,256,330.7,256z"/>
    </g>
  </g>
  <g/>
  <g/>
  <g/>
  <g/>
  <g/>
  <g/>
  <g/>
  <g/>
  <g/>
  <g/>
  <g/>
  <g/>
  <g/>
  <g/>
  <g/>
  <circle style="fill: rgb(255, 255, 255);" cx="362.394" cy="65.564" r="55.226"/>
  <circle style="fill: rgb(96, 255, 96);" cx="362.392" cy="64.968" r="51.552"/>
</svg>