<svg width="30" height="30" viewBox="0 0 30 30" fill="none" xmlns="http://www.w3.org/2000/svg">
<circle cx="15" cy="15" r="15" fill="#F2994A"/>
<path fill-rule="evenodd" clip-rule="evenodd" d="M14.4375 7.0625C14.4375 6.44 14.9121 5.9375 15.5 5.9375C16.0879 5.9375 16.5625 6.44 16.5625 7.0625V7.94C18.7867 8.45 20.4583 10.55 20.4583 13.0625V17.5625L21.875 19.0625V19.8125H9.125V19.0625L10.5417 17.5625V13.0625C10.5417 10.55 12.2133 8.45 14.4375 7.94V7.0625ZM15.5 9.3125C17.455 9.3125 19.0417 10.9925 19.0417 13.0625V18.3125H11.9583V13.0625C11.9583 10.9925 13.545 9.3125 15.5 9.3125ZM14.0904 20.57C14.0904 21.395 14.7209 22.0625 15.5 22.0625C16.2792 22.0625 16.9096 21.395 16.9096 20.57H14.0904ZM14.7917 10.8125H16.2083V13.8125H14.7917V10.8125ZM16.2083 15.3125H14.7917V16.8125H16.2083V15.3125Z" fill="white"/>
</svg>
