<svg width="47" height="40" viewBox="0 0 47 40" fill="none" xmlns="http://www.w3.org/2000/svg">
<path d="M22.2334 26.913C22.0801 26.8612 21.9112 26.9126 21.8128 27.0411L19.066 30.6295C18.9054 30.8389 18.6514 30.9641 18.3867 30.9641C18.2377 30.9641 18.0915 30.9255 17.9627 30.8514L5.37676 23.6687C5.26003 23.6022 5.11657 23.6026 5.00026 23.6702C4.88407 23.7378 4.8125 23.8619 4.8125 23.9964V29.5989C4.8125 29.7336 4.88429 29.858 5.0008 29.9253L21.9233 39.716C21.9818 39.7496 22.0469 39.7668 22.1122 39.7668C22.1773 39.7668 22.2424 39.75 22.3007 39.7162C22.4176 39.6489 22.4895 39.5243 22.4895 39.3895V27.2702C22.4896 27.1086 22.3864 26.9648 22.2334 26.913Z" fill="#45556A"/>
<path d="M41.6862 23.6701C41.5701 23.6027 41.4267 23.6021 41.3098 23.6686L28.723 30.8521C28.5952 30.9253 28.4492 30.9639 28.3002 30.9639C28.0353 30.9639 27.7814 30.8392 27.6211 30.6297L24.8741 27.0408C24.7756 26.9124 24.6065 26.8608 24.4535 26.9127C24.3003 26.9644 24.1973 27.1082 24.1973 27.2698V39.3891C24.1973 39.5238 24.2692 39.6484 24.386 39.7158C24.4443 39.7494 24.5095 39.7663 24.5745 39.7663C24.6397 39.7663 24.7049 39.7493 24.7635 39.7156L41.6859 29.9249C41.8024 29.8576 41.8742 29.7332 41.8742 29.5984V23.9959C41.8741 23.8619 41.8025 23.7377 41.6862 23.6701Z" fill="#45556A"/>
<path d="M46.6789 8.35108C46.6586 8.22885 46.5796 8.12429 46.4676 8.07137L29.4324 0.0360185C29.296 -0.028222 29.1343 -0.00526375 29.0215 0.0947618L24.1526 4.4033L23.5184 4.0669C23.4078 4.00815 23.2753 4.00815 23.1647 4.0669L22.5307 4.40351L17.6627 0.0947618C17.5498 -0.00515597 17.3881 -0.0281142 17.2517 0.0360185L0.216336 8.07137C0.104346 8.12418 0.0253386 8.22885 0.00507475 8.35108C-0.015189 8.4733 0.0259853 8.59769 0.115124 8.68381L5.19843 13.5978L4.39769 14.023C4.3342 14.0567 4.28171 14.1078 4.24635 14.1703L1.48541 19.0462C1.38301 19.227 1.44618 19.4567 1.62672 19.5597L17.8729 28.8317C18.0368 28.9254 18.2445 28.8835 18.3594 28.7337L21.7923 24.25C21.8592 24.1625 21.8846 24.0506 21.862 23.943C21.8394 23.8354 21.7711 23.743 21.6748 23.6901L5.54722 14.8051L22.7276 5.68876L22.7279 16.898L18.5102 19.3419C18.3925 19.4102 18.3206 19.5365 18.3222 19.6724C18.3237 19.8083 18.3981 19.933 18.5174 19.9988L23.1596 22.5564C23.273 22.6188 23.4103 22.6188 23.5237 22.5564L28.1663 19.9988C28.2853 19.9331 28.36 19.8083 28.3615 19.6722C28.3631 19.5362 28.2912 19.41 28.1735 19.3419L23.9558 16.898L23.9559 5.68865L41.1364 14.805L25.0091 23.6902C24.9126 23.743 24.8445 23.8355 24.822 23.9431C24.7993 24.0507 24.8248 24.1627 24.8916 24.2502L28.3246 28.734C28.3984 28.83 28.5104 28.8816 28.6244 28.8816C28.6881 28.8816 28.7524 28.8658 28.811 28.832L45.0572 19.5599C45.2378 19.4569 45.3009 19.2272 45.1986 19.0464L42.4369 14.1702C42.4016 14.1077 42.3492 14.0567 42.2858 14.0231L41.4859 13.5979L46.569 8.68392C46.6578 8.59758 46.699 8.4732 46.6789 8.35108Z" fill="#45556A"/>
</svg>
