<svg width="45" height="45" viewBox="0 0 45 45" fill="none" xmlns="http://www.w3.org/2000/svg">
<path fill-rule="evenodd" clip-rule="evenodd" d="M43.8336 19.5922L25.4 1.15851C23.8655 -0.375923 21.1649 -0.396382 19.6101 1.15851L1.19686 19.5717C-0.398953 21.1675 -0.398953 23.7454 1.19686 25.3412L19.6101 43.7544C20.408 44.5523 21.4514 44.941 22.4948 44.941C23.5382 44.941 24.5816 44.5523 25.3795 43.7544L43.7723 25.3616C45.3885 23.8067 45.409 21.2289 43.8336 19.5922ZM22.5148 40.8694L4.10156 22.4562L22.5148 4.04297L40.9279 22.4562L22.5148 40.8694ZM14.3115 28.614V20.4303C14.3115 19.3051 15.2322 18.3844 16.3574 18.3844H26.587V13.2697L33.7477 20.4303L26.587 27.591V22.4762H18.4033V28.614H14.3115Z" fill="#45556A"/>
</svg>
