<svg width="57" height="46" viewBox="0 0 57 46" fill="none" xmlns="http://www.w3.org/2000/svg">
<path d="M9.91102 41.4801C12.3849 41.4801 14.3904 39.5123 14.3904 37.0848C14.3904 34.6573 12.3849 32.6895 9.91102 32.6895C7.43712 32.6895 5.43164 34.6573 5.43164 37.0848C5.43164 39.5123 7.43712 41.4801 9.91102 41.4801Z" fill="#F9F8F7"/>
<path d="M56.7453 30.1787C54.4656 26.529 50.5461 24.1351 46.1468 23.8212L48.1465 20.2892H49.6263V19.3866H36.6681V20.2892H45.6668L42.3873 24.0567C36.8281 25.1947 32.4687 29.7078 31.7088 35.2805H23.3499C22.75 30.8851 19.9104 27.1569 16.031 25.234L18.5106 9.30086V4.90552H16.7509L17.9107 2.82558C18.0707 3.17878 18.2707 3.375 18.5506 3.375C19.0306 3.375 19.3905 2.62936 19.3905 1.6875C19.3905 0.745639 19.0306 0 18.5506 0C18.0707 0 17.6707 0.745639 17.6707 1.6875C17.6707 1.88372 17.6707 2.0407 17.7107 2.19767L16.2309 4.90552H10.9917C10.2318 6.35755 10.2318 7.84883 10.9917 9.30086H13.5913L6.99223 24.0959C4.59257 24.6061 2.35288 25.7834 0.553133 27.4709C-0.246755 28.2165 -0.166766 29.5116 0.713111 30.1787C1.43301 30.7282 2.43287 30.6497 3.11278 30.0218C4.91252 28.3343 7.31219 27.3924 9.83184 27.3924C15.3511 27.3532 19.7504 31.8662 19.7504 37.2427V38.8517H35.2683V37.2034C35.2683 31.8662 39.5877 27.4317 44.9869 27.3532C48.5064 27.3139 51.746 29.0799 53.5457 31.984C54.0257 32.7296 54.9455 33.0436 55.7854 32.7296L55.9054 32.6904C56.9053 32.2979 57.3052 31.1206 56.7453 30.1787Z" fill="#45556A"/>
<path d="M45.1462 45.0542C49.6301 45.0542 53.2651 41.4875 53.2651 37.0877C53.2651 32.6878 49.6301 29.1211 45.1462 29.1211C40.6623 29.1211 37.0273 32.6878 37.0273 37.0877C37.0273 41.4875 40.6623 45.0542 45.1462 45.0542Z" fill="#45556A"/>
<path d="M45.1464 43.1696C48.5701 43.1696 51.3455 40.4462 51.3455 37.0868C51.3455 33.7273 48.5701 31.0039 45.1464 31.0039C41.7227 31.0039 38.9473 33.7273 38.9473 37.0868C38.9473 40.4462 41.7227 43.1696 45.1464 43.1696Z" fill="#F3F9F9"/>
<path d="M45.1485 38.736C46.0762 38.736 46.8283 37.998 46.8283 37.0877C46.8283 36.1774 46.0762 35.4395 45.1485 35.4395C44.2208 35.4395 43.4688 36.1774 43.4688 37.0877C43.4688 37.998 44.2208 38.736 45.1485 38.736Z" fill="#45556A"/>
<path d="M9.91183 45.0542C14.3958 45.0542 18.0307 41.4875 18.0307 37.0877C18.0307 32.6878 14.3958 29.1211 9.91183 29.1211C5.42791 29.1211 1.79297 32.6878 1.79297 37.0877C1.79297 41.4875 5.42791 45.0542 9.91183 45.0542Z" fill="#45556A"/>
<path d="M9.91202 43.1696C13.3357 43.1696 16.1112 40.4462 16.1112 37.0868C16.1112 33.7273 13.3357 31.0039 9.91202 31.0039C6.48834 31.0039 3.71289 33.7273 3.71289 37.0868C3.71289 40.4462 6.48834 43.1696 9.91202 43.1696Z" fill="#F3F9F9"/>
<path d="M11.631 37.0877C11.631 37.9903 10.8711 38.736 9.95125 38.736C9.03138 38.736 8.27148 37.9903 8.27148 37.0877C8.27148 36.1851 9.03138 35.4395 9.95125 35.4395C10.8711 35.4395 11.631 36.1851 11.631 37.0877Z" fill="#45556A"/>
<path d="M48.8658 9.69141H39.7871V18.5998H48.8658V9.69141Z" fill="#45556A"/>
<path d="M49.5878 7.96484H39.0293V9.06368H49.5878V7.96484Z" fill="#45556A"/>
<path d="M52.7446 11.4593H47.0254C47.0254 10.9883 47.4253 10.5566 47.9453 10.5566H54.2644L52.7446 11.4593Z" fill="#F9F8F7"/>
<path d="M51.5836 13.2268H45.9844C45.9844 12.7559 46.3843 12.3242 46.9042 12.3242H53.1034L51.5836 13.2268Z" fill="#F9F8F7"/>
<path d="M50.3872 15.0296H44.668C44.668 14.5586 45.0679 14.127 45.5878 14.127H51.867L50.3872 15.0296Z" fill="#F9F8F7"/>
<path d="M33.3073 37.359C33.1473 37.359 33.0273 37.2413 33.0273 37.0843C33.0273 30.5306 38.4666 25.1934 45.1456 25.1934C49.385 25.1934 53.3845 27.4303 55.5442 31.0015C55.6242 31.1192 55.5842 31.2762 55.4642 31.3547C55.3442 31.4332 55.1842 31.3939 55.1042 31.2762C53.0245 27.862 49.1851 25.7035 45.1456 25.7035C38.7465 25.7035 33.5473 30.8053 33.5473 37.0843C33.5473 37.2413 33.4273 37.359 33.3073 37.359Z" fill="#F9F8F7"/>
<path d="M33.3068 37.359H21.5085V37.0843C21.5085 30.8053 16.3092 25.7035 9.91008 25.7035C6.95049 25.7035 4.11089 26.8024 1.95119 28.8038C1.83121 28.8823 1.67123 28.8823 1.59124 28.8038C1.51125 28.6861 1.51125 28.5291 1.59124 28.4506C3.83093 26.3707 6.79051 25.1934 9.91008 25.1934C16.5092 25.1934 21.8684 30.3736 22.0284 36.8096H33.3068C33.4668 36.8096 33.5868 36.9274 33.5868 37.0843C33.5468 37.2413 33.4268 37.359 33.3068 37.359Z" fill="#F9F8F7"/>
<path d="M12.1114 9.53477C12.0314 9.53477 11.9114 9.49552 11.8714 9.37779C11.0715 7.84727 11.0715 6.2775 11.8714 4.74698C11.9514 4.62925 12.1114 4.55076 12.2313 4.62925C12.3513 4.70774 12.4313 4.86471 12.3513 4.98245C11.6314 6.39524 11.6314 7.72954 12.3513 9.14233C12.4313 9.26006 12.3513 9.41703 12.2313 9.49552C12.1914 9.53477 12.1514 9.53477 12.1114 9.53477Z" fill="#F9F8F7"/>
<path d="M36.6681 19.4258H35.5882C34.7884 19.4258 34.1484 20.0537 34.1484 20.8386V22.3691C34.1484 23.6642 37.7479 25.9403 37.7479 25.9403C37.7479 25.9403 41.3074 23.7819 44.9069 24.606C48.5064 25.4301 49.6263 25.1162 49.6263 25.1162L52.5059 23.0362C52.9858 22.683 53.2658 22.1336 53.2658 21.545V20.8386C53.2658 20.0537 52.6258 19.4258 51.826 19.4258H36.6681Z" fill="#45556A"/>
<path d="M51.9067 21.9771H38.5886C38.4286 21.9771 38.3086 21.8594 38.3086 21.7024C38.3086 21.5455 38.4286 21.4277 38.5886 21.4277H51.9067C52.0667 21.4277 52.1867 21.5455 52.1867 21.7024C52.1467 21.8594 52.0267 21.9771 51.9067 21.9771Z" fill="#F9F8F7"/>
<path d="M52.7866 10.5548H48.8672V9.69141H55.1063L54.3064 10.1623C53.8265 10.437 53.3066 10.5548 52.7866 10.5548Z" fill="#45556A"/>
<path d="M51.7056 12.3636H47.7461V11.4609H53.9852L53.1853 11.9319C52.7454 12.2066 52.2255 12.3636 51.7056 12.3636Z" fill="#45556A"/>
<path d="M50.4653 14.1272H46.5059V13.2246H52.745L51.9451 13.6955C51.5052 14.0095 50.9852 14.1272 50.4653 14.1272Z" fill="#45556A"/>
</svg>
