<svg width="47" height="45" viewBox="0 0 47 45" fill="none" xmlns="http://www.w3.org/2000/svg">
<path d="M42.7 0H3.90002C1.80002 0 0 1.69999 0 3.89999V29.1C0 31.2 1.70002 33 3.90002 33H19.4V29.1H3.90002V3.89999H42.7V29.1H36.9V33H42.7C44.7999 33 46.6 31.3 46.6 29.1V3.89999C46.5 1.79999 44.7999 0 42.7 0Z" fill="#45556A"/>
<path d="M21.3008 44.6008H34.9009V23.3008H21.3008V44.6008ZM30.1008 28.1008C30.6008 28.1008 31.1008 28.5008 31.1008 29.1008C31.1008 29.6008 30.7008 30.1008 30.1008 30.1008C29.6008 30.1008 29.1008 29.7008 29.1008 29.1008C29.1008 28.6008 29.5008 28.1008 30.1008 28.1008ZM30.1008 32.0008C30.6008 32.0008 31.1008 32.4008 31.1008 33.0008C31.1008 33.5008 30.7008 34.0008 30.1008 34.0008C29.6008 34.0008 29.1008 33.6008 29.1008 33.0008C29.1008 32.4008 29.5008 32.0008 30.1008 32.0008ZM30.1008 35.9008C30.6008 35.9008 31.1008 36.3008 31.1008 36.9008C31.1008 37.4008 30.7008 37.9008 30.1008 37.9008C29.6008 37.9008 29.1008 37.5008 29.1008 36.9008C29.1008 36.3008 29.5008 35.9008 30.1008 35.9008ZM26.2008 28.1008C26.7008 28.1008 27.2008 28.5008 27.2008 29.1008C27.2008 29.6008 26.8008 30.1008 26.2008 30.1008C25.7008 30.1008 25.2008 29.7008 25.2008 29.1008C25.2008 28.6008 25.7008 28.1008 26.2008 28.1008ZM26.2008 32.0008C26.7008 32.0008 27.2008 32.4008 27.2008 33.0008C27.2008 33.5008 26.8008 34.0008 26.2008 34.0008C25.7008 34.0008 25.2008 33.6008 25.2008 33.0008C25.2008 32.4008 25.7008 32.0008 26.2008 32.0008ZM26.2008 35.9008C26.7008 35.9008 27.2008 36.3008 27.2008 36.9008C27.2008 37.4008 26.8008 37.9008 26.2008 37.9008C25.7008 37.9008 25.2008 37.5008 25.2008 36.9008C25.2008 36.3008 25.7008 35.9008 26.2008 35.9008Z" fill="#45556A"/>
<path d="M35.2005 12.6999C31.0005 10.0999 25.8005 9.99987 21.5005 12.3999C21.0005 12.6999 20.9005 13.1999 21.1005 13.6999C21.4005 14.1999 21.9005 14.2999 22.4005 14.0999C26.1005 12.0999 30.5005 12.1999 34.1005 14.3999C34.3005 14.4999 34.4005 14.4999 34.6005 14.4999C34.9005 14.4999 35.2005 14.2999 35.4005 13.9999C35.8005 13.5999 35.7005 12.9999 35.2005 12.6999Z" fill="#45556A"/>
<path d="M32.7008 17.8008C33.0008 17.8008 33.3009 17.6008 33.5009 17.3008C33.8009 16.8008 33.6008 16.2008 33.2008 16.0008C30.2008 14.2008 26.5009 14.1008 23.4009 15.8008C22.9009 16.1008 22.8009 16.6009 23.0009 17.1009C23.3009 17.6009 23.9008 17.7008 24.3008 17.5008C26.7008 16.1008 29.7008 16.2008 32.1008 17.7008C32.3008 17.7008 32.5008 17.8008 32.7008 17.8008Z" fill="#45556A"/>
<path d="M25.2992 19.2008C24.7992 19.5008 24.6993 20.0008 24.8993 20.5008C25.1993 21.0008 25.7993 21.1008 26.1993 20.9008C27.3993 20.2008 28.8993 20.3008 30.0993 21.0008C30.2993 21.1008 30.3993 21.1008 30.5993 21.1008C30.8993 21.1008 31.1993 20.9008 31.3993 20.6008C31.6993 20.1008 31.4993 19.5008 31.0993 19.3008C29.3993 18.2008 27.0992 18.2008 25.2992 19.2008Z" fill="#45556A"/>
</svg>
